<?xml version="1.0" standalone="no"?>
<!DOCTYPE svg PUBLIC "-//W3C//DTD SVG 20010904//EN"
 "http://www.w3.org/TR/2001/REC-SVG-20010904/DTD/svg10.dtd">
<svg version="1.0" xmlns="http://www.w3.org/2000/svg"
 width="500.000000pt" height="500.000000pt" viewBox="0 0 500.000000 500.000000"
 preserveAspectRatio="xMidYMid meet">

<g transform="translate(0.000000,500.000000) scale(0.100000,-0.100000)"
fill="#000000" stroke="none">
<path d="M2300 4761 c-102 -59 -270 -156 -373 -216 -135 -77 -191 -115 -198
-132 -5 -13 -9 -157 -9 -319 l0 -294 -244 0 c-209 0 -247 -2 -260 -16 -14 -13
-16 -51 -16 -260 l0 -244 -304 0 c-275 0 -306 -2 -324 -17 -21 -18 -431 -721
-439 -754 -3 -10 41 -96 104 -206 61 -103 158 -273 218 -376 77 -135 115 -191
132 -198 13 -5 157 -9 319 -9 l294 0 0 -248 c0 -180 3 -251 12 -260 9 -9 80
-12 260 -12 l248 0 0 -292 c0 -161 3 -303 6 -316 7 -24 64 -59 525 -326 129
-75 242 -136 250 -135 8 0 180 96 384 212 261 150 373 219 382 237 9 18 13
104 13 323 l0 297 248 0 c180 0 251 3 260 12 9 9 12 80 12 260 l0 247 311 3
312 3 16 24 c48 70 431 738 430 751 0 8 -95 181 -212 385 -150 260 -219 373
-237 382 -18 9 -103 13 -322 13 l-298 0 0 248 c0 180 -3 251 -12 260 -9 9 -80
12 -260 12 l-248 0 0 304 c0 275 -2 306 -17 324 -22 26 -742 442 -763 442 -8
-1 -98 -49 -200 -109z m402 -129 c112 -65 247 -143 300 -173 54 -30 96 -58 95
-62 -4 -14 -588 -348 -602 -345 -22 6 -595 340 -595 348 0 4 89 58 198 119
108 61 242 138 297 170 55 33 101 60 102 60 2 1 94 -52 205 -117z m-432 -582
c80 -46 153 -90 162 -99 16 -15 17 -43 10 -357 l-7 -341 -297 171 -298 171 0
352 0 352 143 -83 c78 -45 207 -120 287 -166z m890 -104 l0 -353 -299 -172
c-164 -94 -301 -171 -305 -171 -3 0 -6 155 -6 345 l0 346 49 30 c44 28 552
326 559 328 1 1 2 -158 2 -353z m-1430 -328 c0 -40 4 -78 8 -84 16 -24 739
-434 766 -434 10 0 96 45 190 99 94 54 261 150 371 213 l200 114 3 82 3 82
209 0 210 0 0 -210 0 -210 -74 0 c-55 0 -77 -4 -87 -16 -28 -34 -429 -739
-429 -754 0 -9 39 -84 86 -166 47 -82 103 -180 124 -219 21 -38 78 -140 127
-225 97 -169 95 -167 196 -169 l57 -1 0 -205 0 -205 -210 0 -210 0 0 73 c0 58
-4 77 -17 89 -19 17 -680 398 -725 419 -22 10 -34 10 -55 0 -51 -23 -714 -403
-729 -418 -10 -10 -14 -37 -14 -89 l0 -74 -210 0 -210 0 0 205 0 205 54 0
c104 0 90 -17 320 385 115 201 211 376 213 389 4 18 -49 118 -202 387 -114
200 -213 370 -221 378 -8 8 -42 16 -88 19 l-76 5 0 203 0 204 210 0 210 0 0
-72z m-169 -725 c84 -148 161 -283 172 -301 l19 -32 -353 2 -352 3 -164 280
c-90 154 -168 288 -174 298 -9 16 10 17 344 17 l355 0 153 -267z m2592 15
c-80 -139 -157 -274 -172 -300 l-26 -48 -354 0 -353 0 14 23 c8 12 86 147 173
300 l160 277 352 0 352 0 -146 -252z m-3374 -104 c94 -163 171 -299 171 -304
0 -17 -343 -601 -351 -598 -5 2 -85 137 -178 301 l-169 297 137 238 c76 130
153 265 172 299 19 35 37 63 41 63 3 0 83 -133 177 -296z m3794 0 c93 -162
167 -302 165 -310 -4 -21 -332 -593 -340 -594 -7 0 -348 587 -348 600 0 13
341 600 349 600 3 0 82 -133 174 -296z m-2879 -461 c-31 -54 -108 -189 -172
-300 l-117 -203 -353 0 -352 0 14 23 c8 12 80 137 161 277 81 140 154 265 161
278 l14 22 350 0 349 0 -55 -97z m2409 -161 c81 -141 159 -276 173 -299 l25
-43 -354 0 -355 0 -153 268 c-84 147 -161 282 -172 300 l-19 32 354 0 353 -1
148 -257z m-1653 -781 l0 -349 -282 -163 c-156 -89 -293 -169 -305 -177 l-23
-14 0 354 0 355 298 171 c163 94 300 171 305 172 4 0 7 -157 7 -349z m433 164
l277 -160 0 -352 0 -352 -182 106 c-101 58 -239 137 -307 176 l-124 71 6 196
c4 107 7 264 7 349 l0 153 23 -14 c12 -8 147 -86 300 -173z m-79 -786 c163
-94 296 -174 296 -177 0 -12 -590 -343 -605 -340 -27 6 -594 333 -592 341 3
10 577 345 594 346 6 1 144 -76 307 -170z"/>
</g>
</svg>
